<svg width="473" height="932" viewBox="0 0 473 932" fill="none" xmlns="http://www.w3.org/2000/svg">
<g id="iPhone 14 &#38; 15 Pro - 1">
<rect width="393" height="852" transform="translate(40 40)" fill="#D8CCB6"/>
<g id="Mask group">
<mask id="mask0_414_117" style="mask-type:alpha" maskUnits="userSpaceOnUse" x="117" y="258" width="240" height="262">
<path id="Union" fill-rule="evenodd" clip-rule="evenodd" d="M356 491.194C356.659 492.277 357 493.38 357 494.5C357 508.583 303.274 520 237 520C171.512 520 118.28 508.852 117.025 495H117V258H356V491.194Z" fill="#D9D9D9"/>
</mask>
<g mask="url(#mask0_414_117)">
<ellipse id="Ellipse 3" cx="237" cy="494.5" rx="120" ry="32.5" fill="#D9D9D9"/>
</g>
</g>
</g>
<g id="Rectangle">
<rect x="40" y="4" width="124.688" height="30" rx="3" fill="#D8CCB6"/>
<rect x="40.5" y="4.5" width="123.688" height="29" rx="2.5" stroke="white" stroke-opacity="0.0980392"/>
</g>
<path id="iPhone 14 &#38; 15 Pro - 1_2" d="M46.8438 22V16H47.7656V22H46.8438ZM47.3125 15C47.1328 15 46.9779 14.9388 46.8477 14.8164C46.7201 14.694 46.6563 14.5469 46.6563 14.375C46.6563 14.2031 46.7201 14.056 46.8477 13.9336C46.9779 13.8112 47.1328 13.75 47.3125 13.75C47.4922 13.75 47.6458 13.8112 47.7734 13.9336C47.9036 14.056 47.9688 14.2031 47.9688 14.375C47.9688 14.5469 47.9036 14.694 47.7734 14.8164C47.6458 14.9388 47.4922 15 47.3125 15ZM49.5791 22V14H52.2822C52.9098 14 53.4229 14.1133 53.8213 14.3398C54.2223 14.5638 54.5192 14.8672 54.7119 15.25C54.9046 15.6328 55.001 16.0599 55.001 16.5312C55.001 17.0026 54.9046 17.431 54.7119 17.8164C54.5218 18.2018 54.2275 18.5091 53.8291 18.7383C53.4307 18.9648 52.9202 19.0781 52.2979 19.0781H50.3604V18.2188H52.2666C52.6963 18.2188 53.0413 18.1445 53.3018 17.9961C53.5622 17.8477 53.751 17.6471 53.8682 17.3945C53.988 17.1393 54.0479 16.8516 54.0479 16.5312C54.0479 16.2109 53.988 15.9245 53.8682 15.6719C53.751 15.4193 53.5609 15.2214 53.2979 15.0781C53.0348 14.9323 52.6859 14.8594 52.251 14.8594H50.5479V22H49.5791ZM57.3584 18.3906V22H56.4365V14H57.3584V16.9375H57.4365C57.5771 16.6276 57.7881 16.3815 58.0693 16.1992C58.3532 16.0143 58.7308 15.9219 59.2021 15.9219C59.611 15.9219 59.9691 16.0039 60.2764 16.168C60.5837 16.3294 60.8219 16.5781 60.9912 16.9141C61.1631 17.2474 61.249 17.6719 61.249 18.1875V22H60.3271V18.25C60.3271 17.7734 60.2035 17.4049 59.9561 17.1445C59.7113 16.8815 59.3714 16.75 58.9365 16.75C58.6344 16.75 58.3636 16.8138 58.124 16.9414C57.887 17.069 57.6995 17.2552 57.5615 17.5C57.4261 17.7448 57.3584 18.0417 57.3584 18.3906ZM65.373 22.125C64.8314 22.125 64.3561 21.9961 63.9473 21.7383C63.541 21.4805 63.2233 21.1198 62.9941 20.6562C62.7676 20.1927 62.6543 19.651 62.6543 19.0312C62.6543 18.4062 62.7676 17.8607 62.9941 17.3945C63.2233 16.9284 63.541 16.5664 63.9473 16.3086C64.3561 16.0508 64.8314 15.9219 65.373 15.9219C65.9147 15.9219 66.3887 16.0508 66.7949 16.3086C67.2038 16.5664 67.5215 16.9284 67.748 17.3945C67.9772 17.8607 68.0918 18.4062 68.0918 19.0312C68.0918 19.651 67.9772 20.1927 67.748 20.6562C67.5215 21.1198 67.2038 21.4805 66.7949 21.7383C66.3887 21.9961 65.9147 22.125 65.373 22.125ZM65.373 21.2969C65.7845 21.2969 66.123 21.1914 66.3887 20.9805C66.6543 20.7695 66.8509 20.4922 66.9785 20.1484C67.1061 19.8047 67.1699 19.4323 67.1699 19.0312C67.1699 18.6302 67.1061 18.2565 66.9785 17.9102C66.8509 17.5638 66.6543 17.2839 66.3887 17.0703C66.123 16.8568 65.7845 16.75 65.373 16.75C64.9616 16.75 64.623 16.8568 64.3574 17.0703C64.0918 17.2839 63.8952 17.5638 63.7676 17.9102C63.64 18.2565 63.5762 18.6302 63.5762 19.0312C63.5762 19.4323 63.64 19.8047 63.7676 20.1484C63.8952 20.4922 64.0918 20.7695 64.3574 20.9805C64.623 21.1914 64.9616 21.2969 65.373 21.2969ZM70.4209 18.3906V22H69.499V16H70.3896V16.9375H70.4678C70.6084 16.6328 70.8219 16.388 71.1084 16.2031C71.3949 16.0156 71.7646 15.9219 72.2178 15.9219C72.624 15.9219 72.9795 16.0052 73.2842 16.1719C73.5889 16.3359 73.8258 16.5859 73.9951 16.9219C74.1644 17.2552 74.249 17.6771 74.249 18.1875V22H73.3271V18.25C73.3271 17.7786 73.2048 17.4115 72.96 17.1484C72.7152 16.8828 72.3792 16.75 71.9521 16.75C71.6579 16.75 71.3949 16.8138 71.1631 16.9414C70.9339 17.069 70.7529 17.2552 70.6201 17.5C70.4873 17.7448 70.4209 18.0417 70.4209 18.3906ZM78.4492 22.125C77.8711 22.125 77.3724 21.9974 76.9531 21.7422C76.5365 21.4844 76.2148 21.125 75.9883 20.6641C75.7643 20.2005 75.6523 19.6615 75.6523 19.0469C75.6523 18.4323 75.7643 17.8906 75.9883 17.4219C76.2148 16.9505 76.5299 16.5833 76.9336 16.3203C77.3398 16.0547 77.8138 15.9219 78.3555 15.9219C78.668 15.9219 78.9766 15.974 79.2813 16.0781C79.5859 16.1823 79.8633 16.3516 80.1133 16.5859C80.3633 16.8177 80.5625 17.125 80.7109 17.5078C80.8594 17.8906 80.9336 18.362 80.9336 18.9219V19.3125H76.3086V18.5156H79.9961C79.9961 18.1771 79.9284 17.875 79.793 17.6094C79.6602 17.3437 79.4701 17.1341 79.2227 16.9805C78.9779 16.8268 78.6888 16.75 78.3555 16.75C77.9883 16.75 77.6706 16.8411 77.4023 17.0234C77.1367 17.2031 76.9323 17.4375 76.7891 17.7266C76.6458 18.0156 76.5742 18.3255 76.5742 18.6562V19.1875C76.5742 19.6406 76.6523 20.0247 76.8086 20.3398C76.9674 20.6523 77.1875 20.8906 77.4688 21.0547C77.75 21.2161 78.0768 21.2969 78.4492 21.2969C78.6914 21.2969 78.9102 21.263 79.1055 21.1953C79.3034 21.125 79.474 21.0208 79.6172 20.8828C79.7604 20.7422 79.8711 20.5677 79.9492 20.3594L80.8398 20.6094C80.7461 20.9115 80.5885 21.1771 80.3672 21.4062C80.1458 21.6328 79.8724 21.8099 79.5469 21.9375C79.2214 22.0625 78.8555 22.125 78.4492 22.125ZM88.2266 14V22H87.2578V15.0156H87.2109L85.2578 16.3125V15.3281L87.2578 14H88.2266ZM90.3398 20.3594V19.5625L93.8555 14H94.4336V15.2344H94.043L91.3867 19.4375V19.5H96.1211V20.3594H90.3398ZM94.1055 22V20.1172V19.7461V14H95.0273V22H94.1055ZM102.96 22.1094C102.434 22.1094 101.981 22.013 101.601 21.8203C101.22 21.6276 100.927 21.3633 100.722 21.0273C100.516 20.6914 100.413 20.3073 100.413 19.875C100.413 19.5417 100.483 19.2461 100.624 18.9883C100.767 18.7279 100.964 18.487 101.214 18.2656C101.466 18.0417 101.757 17.8177 102.085 17.5937L103.241 16.7344C103.468 16.5859 103.649 16.4271 103.784 16.2578C103.922 16.0885 103.991 15.8672 103.991 15.5937C103.991 15.3906 103.901 15.194 103.722 15.0039C103.545 14.8138 103.312 14.7188 103.022 14.7188C102.819 14.7188 102.64 14.7708 102.483 14.875C102.33 14.9766 102.209 15.1068 102.12 15.2656C102.034 15.4219 101.991 15.5833 101.991 15.75C101.991 15.9375 102.042 16.1276 102.144 16.3203C102.248 16.5104 102.379 16.7057 102.538 16.9062C102.7 17.1042 102.866 17.3073 103.038 17.5156L106.71 22H105.601L102.569 18.3437C102.288 18.0052 102.033 17.6979 101.804 17.4219C101.575 17.1458 101.392 16.8737 101.257 16.6055C101.121 16.3372 101.054 16.0469 101.054 15.7344C101.054 15.375 101.133 15.0599 101.292 14.7891C101.453 14.5156 101.679 14.3034 101.968 14.1523C102.259 13.9987 102.601 13.9219 102.991 13.9219C103.392 13.9219 103.737 14 104.026 14.1562C104.315 14.3099 104.538 14.5143 104.694 14.7695C104.851 15.0221 104.929 15.2969 104.929 15.5937C104.929 15.9766 104.834 16.3086 104.644 16.5898C104.453 16.8711 104.194 17.1328 103.866 17.375L102.272 18.5625C101.913 18.8281 101.67 19.0859 101.542 19.3359C101.414 19.5859 101.351 19.7656 101.351 19.875C101.351 20.125 101.416 20.3581 101.546 20.5742C101.676 20.7904 101.86 20.9648 102.097 21.0977C102.334 21.2305 102.611 21.2969 102.929 21.2969C103.231 21.2969 103.525 21.2331 103.812 21.1055C104.098 20.9753 104.357 20.7878 104.589 20.543C104.823 20.2982 105.008 20.0039 105.144 19.6602C105.282 19.3164 105.351 18.9297 105.351 18.5H106.241C106.241 19.0312 106.18 19.4648 106.058 19.8008C105.935 20.1367 105.797 20.3997 105.644 20.5898C105.49 20.7799 105.366 20.9219 105.272 21.0156C105.241 21.0547 105.213 21.0937 105.187 21.1328C105.16 21.1719 105.132 21.2109 105.101 21.25C104.843 21.5391 104.517 21.7552 104.124 21.8984C103.731 22.0391 103.343 22.1094 102.96 22.1094ZM113.621 14V22H112.652V15.0156H112.605L110.652 16.3125V15.3281L112.652 14H113.621ZM118.422 22.1094C117.964 22.1094 117.551 22.0182 117.184 21.8359C116.816 21.6536 116.522 21.4036 116.301 21.0859C116.079 20.7682 115.958 20.4062 115.938 20H116.875C116.911 20.362 117.076 20.6615 117.367 20.8984C117.661 21.1328 118.013 21.25 118.422 21.25C118.75 21.25 119.042 21.1732 119.297 21.0195C119.555 20.8659 119.757 20.6549 119.902 20.3867C120.051 20.1159 120.125 19.8099 120.125 19.4687C120.125 19.1198 120.048 18.8086 119.895 18.5352C119.743 18.2591 119.535 18.0417 119.27 17.8828C119.004 17.724 118.701 17.6432 118.359 17.6406C118.115 17.638 117.863 17.6758 117.605 17.7539C117.348 17.8294 117.135 17.9271 116.969 18.0469L116.063 17.9375L116.547 14H120.703V14.8594H117.359L117.078 17.2187H117.125C117.289 17.0885 117.495 16.9805 117.742 16.8945C117.99 16.8086 118.247 16.7656 118.516 16.7656C119.005 16.7656 119.441 16.8828 119.824 17.1172C120.21 17.349 120.512 17.6667 120.73 18.0703C120.952 18.474 121.062 18.9349 121.062 19.4531C121.062 19.9635 120.948 20.4193 120.719 20.8203C120.492 21.2187 120.18 21.5339 119.781 21.7656C119.383 21.9948 118.93 22.1094 118.422 22.1094ZM125.849 22V14H128.552C129.179 14 129.692 14.1133 130.091 14.3398C130.492 14.5638 130.789 14.8672 130.981 15.25C131.174 15.6328 131.271 16.0599 131.271 16.5312C131.271 17.0026 131.174 17.431 130.981 17.8164C130.791 18.2018 130.497 18.5091 130.099 18.7383C129.7 18.9648 129.19 19.0781 128.567 19.0781H126.63V18.2188H128.536C128.966 18.2188 129.311 18.1445 129.571 17.9961C129.832 17.8477 130.021 17.6471 130.138 17.3945C130.257 17.1393 130.317 16.8516 130.317 16.5312C130.317 16.2109 130.257 15.9245 130.138 15.6719C130.021 15.4193 129.83 15.2214 129.567 15.0781C129.304 14.9323 128.955 14.8594 128.521 14.8594H126.817V22H125.849ZM132.706 22V16H133.597V16.9062H133.659C133.769 16.6094 133.966 16.3685 134.253 16.1836C134.539 15.9987 134.862 15.9062 135.222 15.9062C135.289 15.9062 135.374 15.9076 135.476 15.9102C135.577 15.9128 135.654 15.9167 135.706 15.9219V16.8594C135.675 16.8516 135.603 16.8398 135.491 16.8242C135.382 16.806 135.266 16.7969 135.144 16.7969C134.852 16.7969 134.591 16.8581 134.362 16.9805C134.136 17.1003 133.956 17.2669 133.823 17.4805C133.693 17.6914 133.628 17.9323 133.628 18.2031V22H132.706ZM139.054 22.125C138.512 22.125 138.037 21.9961 137.628 21.7383C137.222 21.4805 136.904 21.1198 136.675 20.6562C136.448 20.1927 136.335 19.651 136.335 19.0312C136.335 18.4062 136.448 17.8607 136.675 17.3945C136.904 16.9284 137.222 16.5664 137.628 16.3086C138.037 16.0508 138.512 15.9219 139.054 15.9219C139.595 15.9219 140.069 16.0508 140.476 16.3086C140.884 16.5664 141.202 16.9284 141.429 17.3945C141.658 17.8607 141.772 18.4062 141.772 19.0312C141.772 19.651 141.658 20.1927 141.429 20.6562C141.202 21.1198 140.884 21.4805 140.476 21.7383C140.069 21.9961 139.595 22.125 139.054 22.125ZM139.054 21.2969C139.465 21.2969 139.804 21.1914 140.069 20.9805C140.335 20.7695 140.532 20.4922 140.659 20.1484C140.787 19.8047 140.851 19.4323 140.851 19.0312C140.851 18.6302 140.787 18.2565 140.659 17.9102C140.532 17.5638 140.335 17.2839 140.069 17.0703C139.804 16.8568 139.465 16.75 139.054 16.75C138.642 16.75 138.304 16.8568 138.038 17.0703C137.772 17.2839 137.576 17.5638 137.448 17.9102C137.321 18.2565 137.257 18.6302 137.257 19.0312C137.257 19.4323 137.321 19.8047 137.448 20.1484C137.576 20.4922 137.772 20.7695 138.038 20.9805C138.304 21.1914 138.642 21.2969 139.054 21.2969ZM149.711 17.5703V18.4297H146.211V17.5703H149.711ZM157.224 14V22H156.255V15.0156H156.208L154.255 16.3125V15.3281L156.255 14H157.224Z" fill="black"/>
</svg>
